<?xml version="1.0" encoding="UTF-8"?>
<svg version="1.1" xmlns="http://www.w3.org/2000/svg" width="138" height="138">
<path d="M0 0 C0.81714981 -0.0071553 1.63429962 -0.01431061 2.47621155 -0.02168274 C3.36922974 -0.02437164 4.26224792 -0.02706055 5.18232727 -0.02983093 C6.12576492 -0.03640213 7.06920258 -0.04297333 8.04122925 -0.04974365 C11.16809671 -0.06947753 14.2949161 -0.08114032 17.42182922 -0.09111023 C19.02451125 -0.09722352 19.02451125 -0.09722352 20.65957069 -0.10346031 C26.3162428 -0.12432278 31.97289064 -0.13862299 37.6295929 -0.147995 C43.46595291 -0.15905159 49.30193085 -0.19344264 55.13815594 -0.23316669 C59.6309682 -0.25934252 64.12368962 -0.26768778 68.61657143 -0.27127647 C70.76749561 -0.27614096 72.91841578 -0.28775097 75.06926537 -0.30631447 C78.08512284 -0.33072285 81.09999452 -0.32973739 84.11592102 -0.32279968 C85.44026657 -0.34201477 85.44026657 -0.34201477 86.79136658 -0.36161804 C94.08546544 -0.30068697 99.20455117 1.75657435 104.72261047 6.52217102 C108.89460964 11.38950338 112.0803776 15.63229779 112.11978149 22.17456055 C112.13051445 23.40028526 112.13051445 23.40028526 112.14146423 24.65077209 C112.14415314 25.54379028 112.14684204 26.43680847 112.14961243 27.35688782 C112.15618362 28.30032547 112.16275482 29.24376312 112.16952515 30.21578979 C112.18925902 33.34265725 112.20092181 36.46947665 112.21089172 39.59638977 C112.21496725 40.66484446 112.21904278 41.73329914 112.22324181 42.83413124 C112.24410427 48.49080334 112.25840448 54.14745118 112.26777649 59.80415344 C112.27883308 65.64051346 112.31322414 71.4764914 112.35294819 77.31271648 C112.37912402 81.80552874 112.38746927 86.29825017 112.39105797 90.79113197 C112.39592245 92.94205616 112.40753246 95.09297633 112.42609596 97.24382591 C112.45050434 100.25968339 112.44951889 103.27455507 112.44258118 106.29048157 C112.46179626 107.61482712 112.46179626 107.61482712 112.48139954 108.96592712 C112.42046846 116.26002599 110.36320715 121.37911172 105.59761047 126.89717102 C100.73027812 131.06917018 96.48748371 134.25493814 89.94522095 134.29434204 C89.12807114 134.30149734 88.31092133 134.30865265 87.4690094 134.31602478 C86.57599121 134.31871368 85.68297302 134.32140259 84.76289368 134.32417297 C83.81945602 134.33074417 82.87601837 134.33731537 81.9039917 134.34408569 C78.77712424 134.36381957 75.65030484 134.37548236 72.52339172 134.38545227 C70.9207097 134.39156556 70.9207097 134.39156556 69.28565025 134.39780235 C63.62897815 134.41866482 57.97233031 134.43296503 52.31562805 134.44233704 C46.47926804 134.45339363 40.6432901 134.48778469 34.80706501 134.52750874 C30.31425275 134.55368456 25.82153133 134.56202982 21.32864952 134.56561852 C19.17772533 134.570483 17.02680516 134.58209301 14.87595558 134.60065651 C11.86009811 134.62506489 8.84522642 134.62407943 5.82929993 134.61714172 C4.50495438 134.63635681 4.50495438 134.63635681 3.15385437 134.65596008 C-4.14024449 134.59502901 -9.25933022 132.53776769 -14.77738953 127.77217102 C-18.94938869 122.90483866 -22.13515665 118.66204425 -22.17456055 112.11978149 C-22.18171585 111.30263168 -22.18887115 110.48548187 -22.19624329 109.64356995 C-22.19893219 108.75055176 -22.20162109 107.85753357 -22.20439148 106.93745422 C-22.21096268 105.99401657 -22.21753387 105.05057892 -22.2243042 104.07855225 C-22.24403807 100.95168479 -22.25570087 97.82486539 -22.26567078 94.69795227 C-22.2697463 93.62949759 -22.27382183 92.5610429 -22.27802086 91.4602108 C-22.29888332 85.8035387 -22.31318353 80.14689086 -22.32255554 74.4901886 C-22.33361214 68.65382858 -22.36800319 62.81785064 -22.40772724 56.98162556 C-22.43390307 52.4888133 -22.44224833 47.99609187 -22.44583702 43.50321007 C-22.45070151 41.35228588 -22.46231151 39.20136571 -22.48087502 37.05051613 C-22.5052834 34.03465865 -22.50429794 31.01978697 -22.49736023 28.00386047 C-22.51017029 27.12096344 -22.52298035 26.23806641 -22.53617859 25.32841492 C-22.47524752 18.03431606 -20.4179862 12.91523032 -15.65238953 7.39717102 C-10.78505717 3.22517186 -6.54226276 0.0394039 0 0 Z " fill="#08090B" transform="translate(24.027389526367188,1.8528289794921875)"/>
<path d="M0 0 C6.32421147 1.37208578 13.16408135 3.53208147 18 8 C20.91619318 12.86992983 21.97906689 18.47768001 23 24 C23.77085938 23.4946875 24.54171875 22.989375 25.3359375 22.46875 C26.84027344 21.49421875 26.84027344 21.49421875 28.375 20.5 C29.37273438 19.8503125 30.37046875 19.200625 31.3984375 18.53125 C34 17 34 17 36 17 C34.35 11.39 32.7 5.78 31 0 C35.56232964 1.82493185 38.55435564 3.88822334 42.25 6.9375 C47.32862791 10.98409579 51.6700336 13.39473874 58 15 C69.13228814 18.53719478 77.50028503 24.60242566 83 35 C83.41507812 35.80824219 83.83015625 36.61648437 84.2578125 37.44921875 C86.41498412 40.60758885 88.83817174 42.39532257 91.9375 44.625 C92.97777344 45.38039062 94.01804687 46.13578125 95.08984375 46.9140625 C96.05019531 47.60242187 97.01054688 48.29078125 98 49 C99.33622399 49.99613414 100.67090606 50.9943723 102 52 C100.68774191 55.93677426 98.8038606 56.8271782 95.4375 59.1875 C94.42558594 59.90292969 93.41367188 60.61835937 92.37109375 61.35546875 C91.58863281 61.89816406 90.80617188 62.44085938 90 63 C90.165 64.27875 90.33 65.5575 90.5 66.875 C90.66972559 68.58303214 90.8361952 70.29138988 91 72 C91.11472656 72.87398438 91.22945313 73.74796875 91.34765625 74.6484375 C91.56621384 77.29497125 91.61167715 79.41283222 91 82 C88.73694144 84.58370991 86.15411324 85.73629991 83 87 C82.22914062 87.31710938 81.45828125 87.63421875 80.6640625 87.9609375 C73.76713213 90.39383527 65.72299047 91.36876629 58.60668945 89.30639648 C55.17605734 88.90315182 54.21339725 89.79009978 51.53125 91.89453125 C50.71269531 92.52037109 49.89414063 93.14621094 49.05078125 93.79101562 C48.20902344 94.45810547 47.36726563 95.12519531 46.5 95.8125 C44.82668618 97.11553228 43.14971263 98.41388126 41.46875 99.70703125 C40.73076172 100.2894458 39.99277344 100.87186035 39.23242188 101.47192383 C36.90146215 103.06744842 34.65270002 104.05131561 32 105 C33.0681847 99.88634986 34.23107476 94.92772031 36 90 C35.26394531 90.01160156 34.52789062 90.02320312 33.76953125 90.03515625 C32.79371094 90.04417969 31.81789063 90.05320312 30.8125 90.0625 C29.84957031 90.07410156 28.88664062 90.08570312 27.89453125 90.09765625 C25.14423487 90.00486622 22.67520409 89.62111685 20 89 C20 90.32 20 91.64 20 93 C19.42156881 95.84696602 18.71480615 97.46261284 16.3671875 99.22753906 C11.7907038 101.95323891 6.99355077 104.15970435 2 106 C1.34 105.67 0.68 105.34 0 105 C8.33439645 66.95239454 8.33439645 66.95239454 11.171875 58.515625 C12.13387643 54.43165668 11.84914545 52.11317771 11 48 C10.80583496 47.05753418 10.61166992 46.11506836 10.41162109 45.14404297 C9.69548964 41.73587326 8.94621611 38.33643613 8.1875 34.9375 C7.91977783 33.7319043 7.65205566 32.52630859 7.3762207 31.28417969 C5.74488871 24.03446787 3.98523361 16.88960595 1.76171875 9.796875 C0.87814217 6.55256305 0.41873103 3.3332648 0 0 Z " fill="#2FBE64" transform="translate(20,16)"/>
<path d="M0 0 C6.33930285 4.48270548 12.91905056 10.574721 15.41796875 18.1171875 C16.45424014 24.57469347 16.03975158 31.23057924 15.83984375 37.74609375 C14.88851562 37.71515625 13.9371875 37.68421875 12.95703125 37.65234375 C9.84569854 37.43342891 9.84569854 37.43342891 7.96484375 39.24609375 C7.59359375 39.74109375 7.22234375 40.23609375 6.83984375 40.74609375 C5.97359375 40.22015625 5.97359375 40.22015625 5.08984375 39.68359375 C2.94988327 38.59981786 2.94988327 38.59981786 0.921875 38.85546875 C-2.14875398 40.16898359 -3.04141707 42.21891684 -4.72265625 45.05859375 C-8.04307164 50.59754949 -8.04307164 50.59754949 -9.83203125 52.8671875 C-11.79188003 55.6397971 -11.84089085 58.42573362 -12.16015625 61.74609375 C-15.46015625 61.74609375 -18.76015625 61.74609375 -22.16015625 61.74609375 C-21.91265625 60.35390625 -21.91265625 60.35390625 -21.66015625 58.93359375 C-21.60717488 53.73082283 -25.04257193 50.30360532 -28.1171875 46.39453125 C-30.01724596 43.93135794 -31.61691548 41.44311389 -33.16015625 38.74609375 C-34.02640625 38.99359375 -34.02640625 38.99359375 -34.91015625 39.24609375 C-37.16015625 39.74609375 -37.16015625 39.74609375 -41.16015625 39.74609375 C-41.82015625 39.08609375 -42.48015625 38.42609375 -43.16015625 37.74609375 C-46.24363451 37.57928266 -46.24363451 37.57928266 -49.16015625 37.74609375 C-51.24303451 30.6911835 -51.20211424 22.37681222 -48.19921875 15.61328125 C-42.51093636 5.39148057 -35.40743076 -0.6038857 -24.2109375 -3.8125 C-15.97177341 -5.58588198 -7.27296051 -4.22173657 0 0 Z " fill="#47A56A" transform="translate(86.16015625,37.25390625)"/>
<path d="M0 0 C4.56232964 1.82493185 7.55435564 3.88822334 11.25 6.9375 C16.32862791 10.98409579 20.6700336 13.39473874 27 15 C38.13228814 18.53719478 46.50028503 24.60242566 52 35 C52.41507813 35.80824219 52.83015625 36.61648437 53.2578125 37.44921875 C55.41498412 40.60758885 57.83817174 42.39532257 60.9375 44.625 C61.97777344 45.38039062 63.01804688 46.13578125 64.08984375 46.9140625 C65.05019531 47.60242187 66.01054688 48.29078125 67 49 C68.33622399 49.99613414 69.67090606 50.9943723 71 52 C69.68774191 55.93677426 67.8038606 56.8271782 64.4375 59.1875 C63.42558594 59.90292969 62.41367188 60.61835937 61.37109375 61.35546875 C60.58863281 61.89816406 59.80617187 62.44085938 59 63 C59.2475 64.918125 59.2475 64.918125 59.5 66.875 C59.66972559 68.58303214 59.8361952 70.29138988 60 72 C60.11472656 72.87398438 60.22945312 73.74796875 60.34765625 74.6484375 C60.56621384 77.29497125 60.61167715 79.41283222 60 82 C57.73694144 84.58370991 55.15411324 85.73629991 52 87 C51.22914062 87.31710938 50.45828125 87.63421875 49.6640625 87.9609375 C43.31659693 90.20001112 36.68156393 90.96395972 30 90 C27.14453125 88.6015625 27.14453125 88.6015625 25 87 C25 86.34 25 85.68 25 85 C21.37 84.67 17.74 84.34 14 84 C14 83.67 14 83.34 14 83 C16.97 83 19.94 83 23 83 C22.7834375 81.576875 22.7834375 81.576875 22.5625 80.125 C22.52749452 74.37243326 26.68107639 70.35832733 30 66 C30.74026403 64.81938599 31.47181897 63.63317594 32.1875 62.4375 C34 60 34 60 36 58.9375 C38.75937358 59.02373042 39.98305259 60.1991541 42 62 C42.33 61.01 42.66 60.02 43 59 C48.75 57.875 48.75 57.875 51 59 C50.4981931 43.7727562 49.59950101 34.95832256 38 24 C30.71490284 18.31854058 21.95627359 17.34503441 13 18 C12.3296875 18.16757812 11.659375 18.33515625 10.96875 18.5078125 C8.82116181 19.04470955 6.95907043 19.09931784 4.75 19.0625 C2.89375 19.0315625 2.89375 19.0315625 1 19 C2.32 18.34 3.64 17.68 5 17 C3.35 11.39 1.7 5.78 0 0 Z " fill="#2FBE63" transform="translate(51,16)"/>
<path d="M0 0 C0.66 1.32 1.32 2.64 2 4 C0.35 4.33 -1.3 4.66 -3 5 C-3 5.99 -3 6.98 -3 8 C-2.43796875 8.268125 -1.8759375 8.53625 -1.296875 8.8125 C1.15550646 10.0803979 3.43927683 11.48972342 5.75 13 C6.54921875 13.515625 7.3484375 14.03125 8.171875 14.5625 C8.77515625 15.036875 9.3784375 15.51125 10 16 C10 16.66 10 17.32 10 18 C9.34 17.731875 8.68 17.46375 8 17.1875 C4.35060933 15.74294953 0.67754567 14.37128822 -3 13 C-0.85224355 15.38639606 0.67291626 16.87068782 3.6875 18.0625 C4.8321875 18.5265625 4.8321875 18.5265625 6 19 C6.33 19.99 6.66 20.98 7 22 C3.58978257 21.21302675 0.31114834 20.12880057 -3 19 C1.90509968 24.63911697 8.41937488 25.49256548 15.609375 26.2890625 C20.28400444 26.46161594 23.17824243 25.9225205 27 23 C27.99 22.34 28.98 21.68 30 21 C30.495 21.99 30.495 21.99 31 23 C33.25946584 23.35557331 35.4899777 23.44330506 37.7734375 23.55859375 C40.40992861 24.08126655 41.31415098 24.96066651 43 27 C38.72693031 31.60243408 33.90886426 35.16410516 28.8125 38.8125 C27.58370117 39.7087207 27.58370117 39.7087207 26.33007812 40.62304688 C25.15541992 41.46899414 25.15541992 41.46899414 23.95703125 42.33203125 C23.24522705 42.84483643 22.53342285 43.3576416 21.80004883 43.88598633 C20 45 20 45 18 45 C19.0681847 39.88634986 20.23107476 34.92772031 22 30 C21.26394531 30.01160156 20.52789062 30.02320312 19.76953125 30.03515625 C18.79371094 30.04417969 17.81789063 30.05320312 16.8125 30.0625 C15.36810547 30.07990234 15.36810547 30.07990234 13.89453125 30.09765625 C11.14423487 30.00486622 8.67520409 29.62111685 6 29 C6 30.32 6 31.64 6 33 C5.42156881 35.84696602 4.71480615 37.46261284 2.3671875 39.22753906 C-2.2092962 41.95323891 -7.00644923 44.15970435 -12 46 C-12.66 45.67 -13.32 45.34 -14 45 C-12.27561838 37.12797327 -10.52974611 29.26104912 -8.76074219 21.39892578 C-8.11335527 18.50646085 -7.48070517 15.61130658 -6.8515625 12.71484375 C-6.52739469 11.28875427 -6.20200504 9.86294158 -5.875 8.4375 C-5.60429687 7.21933594 -5.33359375 6.00117187 -5.0546875 4.74609375 C-4 2 -4 2 -1.8828125 0.59765625 C-1.26148438 0.40042969 -0.64015625 0.20320313 0 0 Z " fill="#28B35C" transform="translate(34,76)"/>
<path d="M0 0 C3.19267711 0.31002146 4.61339633 0.57146535 6.80078125 2.99609375 C7.29964844 3.80175781 7.79851563 4.60742188 8.3125 5.4375 C8.82425781 6.24058594 9.33601563 7.04367188 9.86328125 7.87109375 C11 10 11 10 11 12 C11.99 12 12.98 12 14 12 C13.505 11.29875 13.01 10.5975 12.5 9.875 C10.8063319 6.62880281 10.74837685 4.60659844 11 1 C14.86700425 2.47314448 16.14602663 4.43577571 18.125 8 C20.22489384 11.75281692 20.22489384 11.75281692 23 15 C22.88709677 22.11290323 22.88709677 22.11290323 20 25 C12.06504184 27.64498605 3.72054654 25.71504024 -4 23 C-6.35546875 21.51953125 -6.35546875 21.51953125 -8 20 C-8 19.34 -8 18.68 -8 18 C-4.28111761 18.50712033 -1.26545761 19.11608215 2 21 C0.19647651 17.6971571 0.19647651 17.6971571 -3.5625 16.5 C-4.696875 16.005 -5.83125 15.51 -7 15 C-7.33 14.01 -7.66 13.02 -8 12 C-2.71862571 12.51525603 0.57221156 14.25477117 5 17 C2.3821703 14.22818031 -0.04830544 11.96841568 -3.25 9.875 C-6 8 -6 8 -7 5 C-0.53501551 5.16576883 3.30435802 9.00348694 8 13 C6.08801558 9.99545305 4.31026186 7.30164347 1.75 4.8125 C0 3 0 3 0 0 Z " fill="#47A66A" transform="translate(39,77)"/>
<path d="M0 0 C0.99 0 1.98 0 3 0 C2.48118887 4.1724106 1.28848726 6.25416821 -1.5625 9.3125 C-2.20316406 10.00988281 -2.84382813 10.70726563 -3.50390625 11.42578125 C-4.24447266 12.20501953 -4.24447266 12.20501953 -5 13 C-1.9618185 11.02164926 0.83368374 9.14603379 3.5625 6.75 C6.33473002 4.75968101 7.66675493 4.61905771 11 5 C9.54144353 8.68646141 7.69770955 10.16143971 4.375 12.25 C3.14910156 13.03117187 3.14910156 13.03117187 1.8984375 13.828125 C0.95871094 14.40820312 0.95871094 14.40820312 0 15 C2.96175123 14.38722388 4.38058783 13.74627478 7 12 C9.6875 11.875 9.6875 11.875 12 12 C11 15 11 15 9.22265625 16.16796875 C8.50980469 16.50441406 7.79695313 16.84085938 7.0625 17.1875 C6.35222656 17.53167969 5.64195313 17.87585938 4.91015625 18.23046875 C3 19 3 19 1 19 C1 19.66 1 20.32 1 21 C1.886875 20.505 2.77375 20.01 3.6875 19.5 C6.87586238 18.05621326 8.58187546 17.69840078 12 18 C12 18.66 12 19.32 12 20 C0.26994434 25.65630798 0.26994434 25.65630798 -5 26 C-5.72058594 26.061875 -6.44117187 26.12375 -7.18359375 26.1875 C-11.13878711 26.39532625 -13.47988119 26.26536674 -17.0625 24.4375 C-19 22 -19 22 -19.6875 18.75 C-18.88220899 14.35750356 -17.32215617 12.31357238 -14.53515625 8.93359375 C-12.58536395 6.47774849 -11.28298557 3.85107905 -10 1 C-9.01 1.33 -8.02 1.66 -7 2 C-6.73781251 5.14624993 -6.75245633 6.61837017 -8.5 9.3125 C-8.995 9.869375 -9.49 10.42625 -10 11 C-5.50547817 9.50182606 -4.20204244 6.0352111 -1.71875 2.15234375 C-1.1515625 1.44207031 -0.584375 0.73179688 0 0 Z " fill="#47A66A" transform="translate(96,77)"/>
<path d="M0 0 C7.50942785 1.78737471 15.64267513 4.40462273 20.015625 11.07421875 C21.6090558 15.41581344 22.82348215 18.98704363 21.015625 23.40625 C19.4799663 25.4643493 17.83664338 27.2087568 16 29 C12.67424478 33.40437853 11.44190537 36.47618284 11 42 C9.1145483 38.63730306 8.23274158 35.32391139 7.34375 31.58203125 C7.04339844 30.32712891 6.74304688 29.07222656 6.43359375 27.77929688 C6.12234098 26.45704416 5.81114343 25.13477845 5.5 23.8125 C5.18923719 22.50966176 4.87804321 21.20692629 4.56640625 19.90429688 C2.98930115 13.28113233 1.45383566 6.65129815 0 0 Z " fill="#129041" transform="translate(20,16)"/>
<path d="M0 0 C6.68364774 4.26203624 12.87987207 8.96590729 19 14 C17.68774191 17.93677426 15.8038606 18.8271782 12.4375 21.1875 C11.42558594 21.90292969 10.41367188 22.61835937 9.37109375 23.35546875 C8.58863281 23.89816406 7.80617188 24.44085938 7 25 C7.165 26.27875 7.33 27.5575 7.5 28.875 C8.07041736 33.9284158 8.09543708 38.92062649 8 44 C7.01 44.495 7.01 44.495 6 45 C5.67 42.03 5.34 39.06 5 36 C-0.11476819 35.36065398 -3.67254378 37.59466453 -8 40 C-6.54395875 36.3038953 -4.73396739 34.91170721 -1.375 32.875 C1.04247089 31.44682181 1.04247089 31.44682181 3 30 C3 29.34 3 28.68 3 28 C1.68 27.34 0.36 26.68 -1 26 C-0.75443359 24.57494141 -0.75443359 24.57494141 -0.50390625 23.12109375 C0.16558293 18.43466951 0.10920922 13.78731694 0.0625 9.0625 C0.05798828 8.18787109 0.05347656 7.31324219 0.04882812 6.41210938 C0.03714834 4.27470953 0.01921689 2.13734537 0 0 Z " fill="#27B45C" transform="translate(103,54)"/>
<path d="M0 0 C2.36720333 0.31562711 3.84191959 0.89097903 5.8125 2.25 C7 4 7 4 6.9375 6.375 C5.82201191 9.49836666 4.1869812 11.53082768 2 14 C1.01 13.67 0.02 13.34 -1 13 C-0.505 12.443125 -0.01 11.88625 0.5 11.3125 C2.24754367 8.61837017 2.26218749 7.14624993 2 4 C1.34 4 0.68 4 0 4 C-0.24234375 4.51949219 -0.4846875 5.03898437 -0.734375 5.57421875 C-2.35181389 8.93973582 -3.76818932 11.73599339 -6.25 14.5625 C-8.64007968 17.89153955 -8.59292595 19.99774981 -8 24 C-6.65844217 26.15479867 -6.65844217 26.15479867 -4 27 C5.1606415 28.11583452 13.48151915 24.95780585 22 22 C22 21.34 22 20.68 22 20 C21.113125 20.309375 20.22625 20.61875 19.3125 20.9375 C16.53290845 21.8290671 13.86863625 22.49377007 11 23 C11 22.34 11 21.68 11 21 C15 19 19 17 23 15 C23 18.3 23 21.6 23 25 C21.0848421 25.81604999 19.16781166 26.62770632 17.25 27.4375 C16.18265625 27.88996094 15.1153125 28.34242187 14.015625 28.80859375 C9.52909772 30.58112072 5.90005931 31.17679608 1.0625 31.25 C0.04285156 31.27578125 -0.97679688 31.3015625 -2.02734375 31.328125 C-5.41948532 30.95369676 -7.29501646 30.05240003 -10 28 C-10 27.34 -10 26.68 -10 26 C-13.63 25.67 -17.26 25.34 -21 25 C-21 24.67 -21 24.34 -21 24 C-18.03 24 -15.06 24 -12 24 C-12.144375 23.05125 -12.28875 22.1025 -12.4375 21.125 C-12.47244672 15.38208878 -8.32867966 11.34299835 -5 7 C-4.19630231 5.82060931 -3.40199655 4.63465025 -2.625 3.4375 C-1 1 -1 1 0 0 Z " fill="#2EBA62" transform="translate(86,75)"/>
<path d="M0 0 C0.54527344 0.22816406 1.09054688 0.45632812 1.65234375 0.69140625 C9.70431134 3.76078877 15.9917615 3.08009173 24 0 C24.36516955 3.83428028 24.11001082 5.78812732 22.3125 9.25 C19.79287012 12.24631661 18.80384614 13.23923077 15 14 C10.01747611 14.14521017 6.93594178 13.7604527 3 10.5625 C0.02494707 6.75071344 -0.1042151 4.79389456 0 0 Z " fill="#123720" transform="translate(57,66)"/>
<path d="M0 0 C1.32 1.65 2.64 3.3 4 5 C6.27971272 6.3057724 6.27971272 6.3057724 8.6875 7.125 C11.07421875 8.0078125 11.07421875 8.0078125 13 9 C14 12 14 12 13 15 C11.44946289 16.09082031 11.44946289 16.09082031 9.47265625 17.078125 C8.40821289 17.61179687 8.40821289 17.61179687 7.32226562 18.15625 C6.57654297 18.5171875 5.83082031 18.878125 5.0625 19.25 C4.32064453 19.62640625 3.57878906 20.0028125 2.81445312 20.390625 C0.90920107 21.33029601 -1.04320375 22.1730082 -3 23 C-3.66 22.67 -4.32 22.34 -5 22 C-3.35 14.74 -1.7 7.48 0 0 Z " fill="#139745" transform="translate(25,99)"/>
<path d="M0 0 C4.56556996 1.82622798 7.79242642 3.93098563 11.5625 6.9375 C12.68870813 7.82173427 13.81500801 8.70585168 14.94140625 9.58984375 C16.45541016 10.78287109 16.45541016 10.78287109 18 12 C19.32943222 13.00518046 20.66079602 14.00787578 22 15 C18.92382812 15.29296875 18.92382812 15.29296875 15.84765625 15.5859375 C15.23792969 15.72257812 14.62820312 15.85921875 14 16 C13.67 16.66 13.34 17.32 13 18 C9.204122 19.5183512 5.0122978 19.06687163 1 19 C2.32 18.34 3.64 17.68 5 17 C3.35 11.39 1.7 5.78 0 0 Z " fill="#27AC59" transform="translate(51,16)"/>
<path d="M0 0 C5.27109902 3.43420088 10.25916033 6.86696029 15 11 C13.74048228 14.77855316 12.25568603 15.48158773 9 17.6875 C8.0925 18.31011719 7.185 18.93273437 6.25 19.57421875 C4 21 4 21 3 21 C2.01 14.07 1.02 7.14 0 0 Z " fill="#139745" transform="translate(107,57)"/>
<path d="M0 0 C12.79901066 -0.72220123 20.93922959 1.54948598 30.79296875 9.8359375 C33.86095823 12.84419621 36.24609145 16.06755241 38 20 C38 20.66 38 21.32 38 22 C37.34 22 36.68 22 36 22 C35.505 20.515 35.505 20.515 35 19 C34.01 18.67 33.02 18.34 32 18 C30.45703125 16.328125 30.45703125 16.328125 28.8125 14.25 C21.05313939 5.15394281 12.3939628 3.15188229 0.90625 2.1484375 C0.2771875 2.09945312 -0.351875 2.05046875 -1 2 C-0.67 1.34 -0.34 0.68 0 0 Z " fill="#2CBA60" transform="translate(65,31)"/>
<path d="M0 0 C-3.3667301 3.62050373 -7.11259369 6.40408707 -11.125 9.25 C-11.75792969 9.70890625 -12.39085937 10.1678125 -13.04296875 10.640625 C-17.75209263 14 -17.75209263 14 -20 14 C-19.68950274 12.56206608 -19.3765224 11.1246682 -19.0625 9.6875 C-18.88847656 8.88699219 -18.71445312 8.08648437 -18.53515625 7.26171875 C-18 5 -18 5 -17 2 C-11.6230678 -0.20018889 -5.71545019 -0.20783455 0 0 Z " fill="#139343" transform="translate(72,107)"/>
<path d="M0 0 C0.66 1.32 1.32 2.64 2 4 C1.60167969 4.54527344 1.20335937 5.09054688 0.79296875 5.65234375 C-3.92920958 12.37369246 -6.68921931 18.87315973 -8 27 C-8.66 26.67 -9.32 26.34 -10 26 C-10.67039467 17.96767868 -10.65149902 12.32237078 -5.6015625 5.8125 C-3.80764198 3.78230702 -2.03107679 1.79672178 0 0 Z " fill="#1BC862" transform="translate(41,38)"/>
<path d="M0 0 C1.74216797 0.04060547 1.74216797 0.04060547 3.51953125 0.08203125 C4.39996094 0.11683594 5.28039062 0.15164062 6.1875 0.1875 C6.1875 1.1775 6.1875 2.1675 6.1875 3.1875 C3.31406563 5.10312291 2.41246459 5.47960899 -0.82421875 5.8203125 C-1.58154297 5.90410156 -2.33886719 5.98789063 -3.11914062 6.07421875 C-3.90482422 6.15285156 -4.69050781 6.23148437 -5.5 6.3125 C-6.29728516 6.39886719 -7.09457031 6.48523438 -7.91601562 6.57421875 C-9.88073326 6.78598472 -11.84652796 6.98771473 -13.8125 7.1875 C-11.32823564 0.63807579 -6.47980742 -0.1963578 0 0 Z " fill="#20E874" transform="translate(69.8125,101.8125)"/>
<path d="M0 0 C1.98 0.495 1.98 0.495 4 1 C3.01 1 2.02 1 1 1 C3.14775645 3.38639606 4.67291626 4.87068782 7.6875 6.0625 C8.450625 6.371875 9.21375 6.68125 10 7 C10.33 7.99 10.66 8.98 11 10 C7.58978257 9.21302675 4.31114834 8.12880057 1 7 C7.05412891 13.97447155 17.24818457 14.27068205 26 15 C26 15.33 26 15.66 26 16 C17.23623441 16.45460456 9.78831438 16.40908707 2 12 C-0.61020066 9.38979934 -0.63751674 7.62483262 -1 4 C-0.5625 1.625 -0.5625 1.625 0 0 Z " fill="#31BC64" transform="translate(30,88)"/>
<path d="M0 0 C0.73828125 1.71875 0.73828125 1.71875 1 4 C-0.58203125 6.21875 -0.58203125 6.21875 -2.8125 8.5 C-7.74358653 13.59691068 -9.18154425 16.90671679 -10 24 C-12.14653544 20.5118799 -12.60163143 18.06101215 -12 14 C-5.17721519 0 -5.17721519 0 0 0 Z " fill="#16AD51" transform="translate(41,34)"/>
<path d="M0 0 C0.2475 0.5775 0.495 1.155 0.75 1.75 C3.71021153 7.07838076 7.52306561 8.89348677 13 11 C12.67 12.98 12.34 14.96 12 17 C9.80454132 15.90227066 7.65345806 14.74060936 5.5 13.5625 C4.7059375 13.13066406 3.911875 12.69882813 3.09375 12.25390625 C1 11 1 11 -1 9 C-1.32752234 6.28545044 -1.1308425 3.74769241 -1 1 C-0.67 0.67 -0.34 0.34 0 0 Z " fill="#1ABF5C" transform="translate(27,93)"/>
<path d="M0 0 C4.00908029 3.27571194 4.66106349 5.8036023 5.25 10.875 C5.39953125 12.06867188 5.5490625 13.26234375 5.703125 14.4921875 C5.97329872 17.68450333 6.0587405 20.79864282 6 24 C2.125 23.125 2.125 23.125 1 22 C0.93941029 18.71679496 0.97932599 15.44853671 1.0390625 12.16601562 C1.08538429 7.98547391 0.83083454 4.12171824 0 0 Z " fill="#1FE371" transform="translate(104,55)"/>
<path d="M0 0 C0.32613618 4.67461851 -0.29417212 7.16674383 -3 11 C-5.91517292 9.92598892 -7.77810176 9.22189824 -10 7 C-10 6.67 -10 6.34 -10 6 C-12.97 5.505 -12.97 5.505 -16 5 C-16 4.67 -16 4.34 -16 4 C-15.32453125 3.87882812 -14.6490625 3.75765625 -13.953125 3.6328125 C-12.61507812 3.38144531 -12.61507812 3.38144531 -11.25 3.125 C-10.36828125 2.96257812 -9.4865625 2.80015625 -8.578125 2.6328125 C-5.55556301 1.89091092 -3.084626 0 0 0 Z " fill="#133520" transform="translate(81,66)"/>
<path d="M0 0 C4.12031537 1.64812615 6.45413161 2.89474136 9.8125 5.5625 C10.60269531 6.18253906 11.39289062 6.80257813 12.20703125 7.44140625 C12.79871094 7.95574219 13.39039062 8.47007813 14 9 C14 9.33 14 9.66 14 10 C12.081875 10.185625 12.081875 10.185625 10.125 10.375 C6.65209064 10.69042399 6.65209064 10.69042399 4 13 C2.68 8.71 1.36 4.42 0 0 Z " fill="#128F41" transform="translate(51,16)"/>
<path d="M0 0 C2.9375 0.1875 2.9375 0.1875 3.9375 1.1875 C4.1875 4.125 4.1875 4.125 3.9375 7.1875 C2.9475 7.8475 1.9575 8.5075 0.9375 9.1875 C0.6075 8.1975 0.2775 7.2075 -0.0625 6.1875 C-1.3825 6.5175 -2.7025 6.8475 -4.0625 7.1875 C-4.6875 4.8125 -4.6875 4.8125 -5.0625 2.1875 C-3.0625 0.1875 -3.0625 0.1875 0 0 Z " fill="#133621" transform="translate(81.0625,50.8125)"/>
<path d="M0 0 C2.9375 0.1875 2.9375 0.1875 3.9375 1.1875 C3.97830783 3.18708364 3.98004356 5.18795254 3.9375 7.1875 C1.2975 7.5175 -1.3425 7.8475 -4.0625 8.1875 C-4.6875 5.3125 -4.6875 5.3125 -5.0625 2.1875 C-3.0625 0.1875 -3.0625 0.1875 0 0 Z " fill="#133620" transform="translate(57.0625,50.8125)"/>
<path d="M0 0 C0.99 0 1.98 0 3 0 C3 0.66 3 1.32 3 2 C4.65 1.34 6.3 0.68 8 0 C9.32 1.32 10.64 2.64 12 4 C7.22426677 6.61895048 3.15565119 5.83119431 -2 5 C-1.125 1.125 -1.125 1.125 0 0 Z " fill="#128D40" transform="translate(65,74)"/>
<path d="M0 0 C5 5 5 5 5.48828125 8.76953125 C5.45539031 10.11805963 5.39624286 11.4661725 5.3125 12.8125 C5.28994141 13.50537109 5.26738281 14.19824219 5.24414062 14.91210938 C5.18562661 16.60901573 5.0959548 18.30479861 5 20 C4.34 20.33 3.68 20.66 3 21 C2.01 14.07 1.02 7.14 0 0 Z " fill="#19BC5A" transform="translate(107,57)"/>
<path d="M0 0 C-2.37780631 2.94847983 -3.69207071 3.92721671 -7.4375 4.8125 C-10.58575943 4.97819786 -12.97986402 4.82367345 -16 4 C-15.67 3.01 -15.34 2.02 -15 1 C-9.91913204 0.15318867 -5.15171623 -0.09038099 0 0 Z " fill="#18BB5A" transform="translate(72,107)"/>
<path d="M0 0 C-1.11291801 2.25258885 -2.25633933 4.48133282 -3.4375 6.69921875 C-6.62811165 12.80126353 -8.86706733 18.20240399 -10 25 C-10.33 25 -10.66 25 -11 25 C-11.75208676 17.32871501 -9.4373136 10.83844496 -6 4 C-2.5751634 0 -2.5751634 0 0 0 Z " fill="#1FE472" transform="translate(43,40)"/>
<path d="M0 0 C0.33 0 0.66 0 1 0 C1 2.97 1 5.94 1 9 C-0.65 9 -2.3 9 -4 9 C-2.68 8.34 -1.36 7.68 0 7 C0 6.34 0 5.68 0 5 C-0.886875 5.309375 -1.77375 5.61875 -2.6875 5.9375 C-5.46709155 6.8290671 -8.13136375 7.49377007 -11 8 C-11 7.34 -11 6.68 -11 6 C-10.28972656 5.65066406 -9.57945313 5.30132812 -8.84765625 4.94140625 C-7.92855469 4.48636719 -7.00945312 4.03132813 -6.0625 3.5625 C-4.68771484 2.88380859 -4.68771484 2.88380859 -3.28515625 2.19140625 C-1.09471096 1.19474606 -1.09471096 1.19474606 0 0 Z " fill="#30BE64" transform="translate(108,90)"/>
<path d="M0 0 C0.66 0.33 1.32 0.66 2 1 C1.45730469 1.52207031 0.91460937 2.04414062 0.35546875 2.58203125 C-5.20676617 8.30461888 -7.59396545 13.16428665 -9 21 C-11 18 -11 18 -10.80078125 15.59765625 C-8.95493547 9.60991263 -4.65889469 4.12132992 0 0 Z " fill="#28B65D" transform="translate(46,38)"/>
<path d="M0 0 C-2.22637035 2.59184839 -3.6201552 3.39896254 -7.01171875 3.73046875 C-7.76904297 3.81103516 -8.52636719 3.89160156 -9.30664062 3.97460938 C-10.48516602 4.07999023 -10.48516602 4.07999023 -11.6875 4.1875 C-12.48478516 4.26935547 -13.28207031 4.35121094 -14.10351562 4.43554688 C-16.067844 4.63550845 -18.03380412 4.81932254 -20 5 C-20 4.34 -20 3.68 -20 3 C-13.37918509 0.93099534 -6.98706888 -0.2183459 0 0 Z " fill="#1CD066" transform="translate(76,104)"/>
<path d="M0 0 C3.62885578 1.45154231 5.15432673 3.2400638 7.25 6.5 C7.77078125 7.2940625 8.2915625 8.088125 8.828125 8.90625 C10 11 10 11 10 13 C9.34 13 8.68 13 8 13 C7.67 12.01 7.34 11.02 7 10 C6.01 9.67 5.02 9.34 4 9 C2.00603743 6.33916031 0 3.38757675 0 0 Z " fill="#23A754" transform="translate(93,40)"/>
<path d="M0 0 C0.33 0 0.66 0 1 0 C1.66 5.28 2.32 10.56 3 16 C2.01 16 1.02 16 0 16 C-0.66 16.33 -1.32 16.66 -2 17 C-1.85899143 14.72886197 -1.71203245 12.45809275 -1.5625 10.1875 C-1.48128906 8.92292969 -1.40007813 7.65835938 -1.31640625 6.35546875 C-1 3 -1 3 0 0 Z " fill="#26CB68" transform="translate(33,62)"/>
<path d="M0 0 C0.33 0 0.66 0 1 0 C1.99250545 5.70690634 2.10477512 11.21408489 2 17 C1.34 17.33 0.68 17.66 0 18 C-0.1954625 15.75067773 -0.38108226 13.50049858 -0.5625 11.25 C-0.66691406 9.99703125 -0.77132812 8.7440625 -0.87890625 7.453125 C-0.97876723 4.60547636 -0.90584295 2.65713933 0 0 Z " fill="#1D8B46" transform="translate(109,81)"/>
<path d="M0 0 C3.96 1.98 7.92 3.96 12 6 C12 6.66 12 7.32 12 8 C3.69849483 6.67732832 3.69849483 6.67732832 0.9375 4 C0 2 0 2 0 0 Z " fill="#1EDB6D" transform="translate(28,98)"/>
<path d="M0 0 C1.67542976 0.28604898 3.34385343 0.61781233 5 1 C4.67 2.32 4.34 3.64 4 5 C2.68 5.33 1.36 5.66 0 6 C-0.38218767 4.34385343 -0.71395102 2.67542976 -1 1 C-0.67 0.67 -0.34 0.34 0 0 Z " fill="#2FBE64" transform="translate(90,56)"/>
<path d="M0 0 C1.22589844 0.01353516 1.22589844 0.01353516 2.4765625 0.02734375 C3.41628906 0.04474609 3.41628906 0.04474609 4.375 0.0625 C4.705 0.7225 5.035 1.3825 5.375 2.0625 C1.085 2.7225 -3.205 3.3825 -7.625 4.0625 C-7.295 3.0725 -6.965 2.0825 -6.625 1.0625 C-4.21954362 -0.14022819 -2.67503047 -0.03821472 0 0 Z " fill="#1FE170" transform="translate(64.625,27.9375)"/>
<path d="M0 0 C1.67542976 0.28604898 3.34385343 0.61781233 5 1 C4.67 2.32 4.34 3.64 4 5 C2.68 5 1.36 5 0 5 C-0.5625 3.0625 -0.5625 3.0625 -1 1 C-0.67 0.67 -0.34 0.34 0 0 Z " fill="#2EBF64" transform="translate(45,56)"/>
<path d="M0 0 C1.45792884 -0.05399736 2.91642712 -0.09279177 4.375 -0.125 C5.18710937 -0.14820312 5.99921875 -0.17140625 6.8359375 -0.1953125 C9 0 9 0 11 2 C10.30132812 2.13277344 9.60265625 2.26554687 8.8828125 2.40234375 C7.97273438 2.57894531 7.06265625 2.75554688 6.125 2.9375 C5.22007813 3.11152344 4.31515625 3.28554688 3.3828125 3.46484375 C1.00043683 3.89963701 1.00043683 3.89963701 -1 5 C-0.67 3.35 -0.34 1.7 0 0 Z " fill="#1AC25D" transform="translate(57,26)"/>
<path d="M0 0 C0.78375 0.2475 1.5675 0.495 2.375 0.75 C2.705 1.41 3.035 2.07 3.375 2.75 C2.09625 2.87375 0.8175 2.9975 -0.5 3.125 C-3.97290936 3.44042399 -3.97290936 3.44042399 -6.625 5.75 C-6.3125 3.875 -6.3125 3.875 -5.625 1.75 C-2.625 -0.25 -2.625 -0.25 0 0 Z " fill="#15A54D" transform="translate(61.625,23.25)"/>
<path d="M0 0 C-3.42346555 3.14958831 -6.44262737 3.56179109 -11 4 C-10.67 3.01 -10.34 2.02 -10 1 C-6.34742296 -0.62336757 -3.80637601 -1.46399077 0 0 Z " fill="#16A74F" transform="translate(72,108)"/>
</svg>
